solid ascii
  facet normal -1.950905e-001 0.000000e+000 -9.807853e-001
    outer loop
      vertex   -7.380182e+001 9.800000e+001 1.107993e+001
      vertex   -7.340000e+001 8.570000e+001 1.100000e+001
      vertex   -7.420364e+001 8.570000e+001 1.115985e+001
    endloop
  endfacet
  facet normal 0.000000e+000 -1.000000e+000 -0.000000e+000
    outer loop
      vertex   -2.760000e+001 8.240000e+001 1.100000e+001
      vertex   -7.650000e+001 8.240000e+001 5.182132e+001
      vertex   -7.880000e+001 8.240000e+001 1.100000e+001
    endloop
  endfacet
  facet normal 0.000000e+000 -1.000000e+000 0.000000e+000
    outer loop
      vertex   -7.650000e+001 8.240000e+001 5.182132e+001
      vertex   -8.150000e+001 8.240000e+001 2.882132e+001
      vertex   -7.880000e+001 8.240000e+001 1.100000e+001
    endloop
  endfacet
  facet normal 0.000000e+000 -1.000000e+000 0.000000e+000
    outer loop
      vertex   -8.150000e+001 8.240000e+001 2.882132e+001
      vertex   -8.150000e+001 8.240000e+001 1.370000e+001
      vertex   -7.880000e+001 8.240000e+001 1.100000e+001
    endloop
  endfacet
  facet normal 0.000000e+000 1.000000e+000 0.000000e+000
    outer loop
      vertex   -7.340000e+001 8.570000e+001 1.100000e+001
      vertex   -7.880000e+001 8.570000e+001 1.100000e+001
      vertex   -7.420364e+001 8.570000e+001 1.115985e+001
    endloop
  endfacet
  facet normal 0.000000e+000 -1.000000e+000 0.000000e+000
    outer loop
      vertex   -8.150000e+001 8.240000e+001 1.370000e+001
      vertex   -8.129447e+001 8.240000e+001 1.266676e+001
      vertex   -7.880000e+001 8.240000e+001 1.100000e+001
    endloop
  endfacet
  facet normal 0.000000e+000 1.000000e+000 0.000000e+000
    outer loop
      vertex   -7.420364e+001 8.570000e+001 1.115985e+001
      vertex   -7.880000e+001 8.570000e+001 1.100000e+001
      vertex   -7.488493e+001 8.570000e+001 1.161508e+001
    endloop
  endfacet
  facet normal 0.000000e+000 -1.000000e+000 0.000000e+000
    outer loop
      vertex   -7.880000e+001 8.240000e+001 1.100000e+001
      vertex   -8.129447e+001 8.240000e+001 1.266676e+001
      vertex   -7.983324e+001 8.240000e+001 1.120553e+001
    endloop
  endfacet
  facet normal -1.950905e-001 -0.000000e+000 -9.807853e-001
    outer loop
      vertex   -7.380182e+001 9.800000e+001 1.107993e+001
      vertex   -7.340000e+001 1.103000e+002 1.100000e+001
      vertex   -7.340000e+001 8.570000e+001 1.100000e+001
    endloop
  endfacet
  facet normal -0.000000e+000 1.000000e+000 -0.000000e+000
    outer loop
      vertex   -7.880000e+001 1.136000e+002 1.100000e+001
      vertex   -7.983324e+001 1.136000e+002 1.120553e+001
      vertex   -8.150000e+001 1.136000e+002 1.370000e+001
    endloop
  endfacet
  facet normal 0.000000e+000 1.000000e+000 0.000000e+000
    outer loop
      vertex   -8.150000e+001 1.136000e+002 2.882132e+001
      vertex   -7.880000e+001 1.136000e+002 1.100000e+001
      vertex   -8.150000e+001 1.136000e+002 1.370000e+001
    endloop
  endfacet
  facet normal 0.000000e+000 1.000000e+000 -0.000000e+000
    outer loop
      vertex   -7.650000e+001 1.136000e+002 5.182132e+001
      vertex   -7.880000e+001 1.136000e+002 1.100000e+001
      vertex   -8.150000e+001 1.136000e+002 2.882132e+001
    endloop
  endfacet
  facet normal 0.000000e+000 1.000000e+000 0.000000e+000
    outer loop
      vertex   -2.760000e+001 1.136000e+002 1.100000e+001
      vertex   -7.880000e+001 1.136000e+002 1.100000e+001
      vertex   -7.650000e+001 1.136000e+002 5.182132e+001
    endloop
  endfacet
  facet normal 0.000000e+000 1.000000e+000 -0.000000e+000
    outer loop
      vertex   -2.760000e+001 1.136000e+002 1.460000e+001
      vertex   -2.760000e+001 1.136000e+002 1.100000e+001
      vertex   -7.650000e+001 1.136000e+002 5.182132e+001
    endloop
  endfacet
  facet normal 0.000000e+000 1.000000e+000 -0.000000e+000
    outer loop
      vertex   -7.488493e+001 8.570000e+001 1.161508e+001
      vertex   -7.880000e+001 8.570000e+001 1.100000e+001
      vertex   -8.150000e+001 8.570000e+001 1.370000e+001
    endloop
  endfacet
  facet normal -0.000000e+000 1.000000e+000 -0.000000e+000
    outer loop
      vertex   -7.880000e+001 8.570000e+001 1.100000e+001
      vertex   -7.983324e+001 8.570000e+001 1.120553e+001
      vertex   -8.150000e+001 8.570000e+001 1.370000e+001
    endloop
  endfacet
  facet normal -1.950917e-001 -0.000000e+000 -9.807851e-001
    outer loop
      vertex   -7.931662e+001 8.405000e+001 1.110276e+001
      vertex   -7.880000e+001 8.570000e+001 1.100000e+001
      vertex   -7.880000e+001 8.240000e+001 1.100000e+001
    endloop
  endfacet
  facet normal 0.000000e+000 -1.000000e+000 -0.000000e+000
    outer loop
      vertex   -7.420364e+001 1.103000e+002 1.115985e+001
      vertex   -7.488493e+001 1.103000e+002 1.161508e+001
      vertex   -7.880000e+001 1.103000e+002 1.100000e+001
    endloop
  endfacet
  facet normal 0.000000e+000 0.000000e+000 -1.000000e+000
    outer loop
      vertex   -7.340000e+001 8.570000e+001 1.100000e+001
      vertex   -7.880000e+001 8.240000e+001 1.100000e+001
      vertex   -7.880000e+001 8.570000e+001 1.100000e+001
    endloop
  endfacet
  facet normal 0.000000e+000 0.000000e+000 -1.000000e+000
    outer loop
      vertex   -7.340000e+001 1.103000e+002 1.100000e+001
      vertex   -7.880000e+001 1.103000e+002 1.100000e+001
      vertex   -7.880000e+001 1.136000e+002 1.100000e+001
    endloop
  endfacet
  facet normal 0.000000e+000 0.000000e+000 -1.000000e+000
    outer loop
      vertex   -2.760000e+001 8.240000e+001 1.100000e+001
      vertex   -7.340000e+001 1.103000e+002 1.100000e+001
      vertex   -7.880000e+001 1.136000e+002 1.100000e+001
    endloop
  endfacet
  facet normal 0.000000e+000 0.000000e+000 -1.000000e+000
    outer loop
      vertex   -2.760000e+001 8.240000e+001 1.100000e+001
      vertex   -7.340000e+001 8.570000e+001 1.100000e+001
      vertex   -7.340000e+001 1.103000e+002 1.100000e+001
    endloop
  endfacet
  facet normal 0.000000e+000 -1.000000e+000 -0.000000e+000
    outer loop
      vertex   -7.340000e+001 1.103000e+002 1.100000e+001
      vertex   -7.420364e+001 1.103000e+002 1.115985e+001
      vertex   -7.880000e+001 1.103000e+002 1.100000e+001
    endloop
  endfacet
  facet normal -1.950912e-001 -1.671639e-007 -9.807851e-001
    outer loop
      vertex   -7.931662e+001 1.119500e+002 1.110276e+001
      vertex   -7.983324e+001 1.136000e+002 1.120553e+001
      vertex   -7.880000e+001 1.136000e+002 1.100000e+001
    endloop
  endfacet
  facet normal -1.950912e-001 -1.671647e-007 -9.807851e-001
    outer loop
      vertex   -7.931662e+001 8.405000e+001 1.110276e+001
      vertex   -7.983324e+001 8.570000e+001 1.120553e+001
      vertex   -7.880000e+001 8.570000e+001 1.100000e+001
    endloop
  endfacet
  facet normal 1.000000e+000 0.000000e+000 -0.000000e+000
    outer loop
      vertex   -2.760000e+001 9.800000e+001 1.340000e+001
      vertex   -2.760000e+001 1.136000e+002 1.100000e+001
      vertex   -2.760000e+001 1.136000e+002 1.460000e+001
    endloop
  endfacet
  facet normal -1.950905e-001 0.000000e+000 -9.807853e-001
    outer loop
      vertex   -7.380182e+001 9.800000e+001 1.107993e+001
      vertex   -7.420364e+001 1.103000e+002 1.115985e+001
      vertex   -7.340000e+001 1.103000e+002 1.100000e+001
    endloop
  endfacet
  facet normal -1.950917e-001 -0.000000e+000 -9.807851e-001
    outer loop
      vertex   -7.931662e+001 1.119500e+002 1.110276e+001
      vertex   -7.880000e+001 1.136000e+002 1.100000e+001
      vertex   -7.880000e+001 1.103000e+002 1.100000e+001
    endloop
  endfacet
  facet normal 0.000000e+000 -1.000000e+000 0.000000e+000
    outer loop
      vertex   -7.488493e+001 1.103000e+002 1.161508e+001
      vertex   -8.150000e+001 1.103000e+002 1.370000e+001
      vertex   -7.880000e+001 1.103000e+002 1.100000e+001
    endloop
  endfacet
  facet normal 1.000000e+000 0.000000e+000 0.000000e+000
    outer loop
      vertex   -2.760000e+001 9.800000e+001 1.340000e+001
      vertex   -2.760000e+001 8.240000e+001 1.100000e+001
      vertex   -2.760000e+001 1.136000e+002 1.100000e+001
    endloop
  endfacet
  facet normal 0.000000e+000 -1.000000e+000 0.000000e+000
    outer loop
      vertex   -8.150000e+001 1.103000e+002 1.370000e+001
      vertex   -8.129447e+001 1.103000e+002 1.266676e+001
      vertex   -7.880000e+001 1.103000e+002 1.100000e+001
    endloop
  endfacet
  facet normal -1.950912e-001 1.671647e-007 -9.807851e-001
    outer loop
      vertex   -7.931662e+001 1.119500e+002 1.110276e+001
      vertex   -7.880000e+001 1.103000e+002 1.100000e+001
      vertex   -7.983324e+001 1.103000e+002 1.120553e+001
    endloop
  endfacet
  facet normal 0.000000e+000 0.000000e+000 -1.000000e+000
    outer loop
      vertex   -2.760000e+001 1.136000e+002 1.100000e+001
      vertex   -2.760000e+001 8.240000e+001 1.100000e+001
      vertex   -7.880000e+001 1.136000e+002 1.100000e+001
    endloop
  endfacet
  facet normal 0.000000e+000 -1.000000e+000 0.000000e+000
    outer loop
      vertex   -7.880000e+001 1.103000e+002 1.100000e+001
      vertex   -8.129447e+001 1.103000e+002 1.266676e+001
      vertex   -7.983324e+001 1.103000e+002 1.120553e+001
    endloop
  endfacet
  facet normal 0.000000e+000 -1.000000e+000 0.000000e+000
    outer loop
      vertex   -2.760000e+001 8.240000e+001 1.460000e+001
      vertex   -7.650000e+001 8.240000e+001 5.182132e+001
      vertex   -2.760000e+001 8.240000e+001 1.100000e+001
    endloop
  endfacet
  facet normal 1.000000e+000 0.000000e+000 0.000000e+000
    outer loop
      vertex   -2.760000e+001 9.800000e+001 1.340000e+001
      vertex   -2.760000e+001 8.240000e+001 1.460000e+001
      vertex   -2.760000e+001 8.240000e+001 1.100000e+001
    endloop
  endfacet
  facet normal -1.950912e-001 1.671639e-007 -9.807851e-001
    outer loop
      vertex   -7.931662e+001 8.405000e+001 1.110276e+001
      vertex   -7.880000e+001 8.240000e+001 1.100000e+001
      vertex   -7.983324e+001 8.240000e+001 1.120553e+001
    endloop
  endfacet
  facet normal 0.000000e+000 0.000000e+000 -1.000000e+000
    outer loop
      vertex   -2.760000e+001 8.240000e+001 1.100000e+001
      vertex   -7.880000e+001 8.240000e+001 1.100000e+001
      vertex   -7.340000e+001 8.570000e+001 1.100000e+001
    endloop
  endfacet
  facet normal -1.950905e-001 0.000000e+000 -9.807853e-001
    outer loop
      vertex   -7.380182e+001 9.800000e+001 1.107993e+001
      vertex   -7.420364e+001 8.570000e+001 1.115985e+001
      vertex   -7.420364e+001 1.103000e+002 1.115985e+001
    endloop
  endfacet
  facet normal -1.950907e-001 0.000000e+000 -9.807852e-001
    outer loop
      vertex   -7.931662e+001 1.119500e+002 1.110276e+001
      vertex   -7.983324e+001 1.103000e+002 1.120553e+001
      vertex   -7.983324e+001 1.136000e+002 1.120553e+001
    endloop
  endfacet
  facet normal -1.950907e-001 0.000000e+000 -9.807852e-001
    outer loop
      vertex   -7.931662e+001 8.405000e+001 1.110276e+001
      vertex   -7.983324e+001 8.240000e+001 1.120553e+001
      vertex   -7.983324e+001 8.570000e+001 1.120553e+001
    endloop
  endfacet
  facet normal -5.555702e-001 0.000000e+000 -8.314697e-001
    outer loop
      vertex   -7.454428e+001 9.800000e+001 1.138746e+001
      vertex   -7.488493e+001 1.103000e+002 1.161508e+001
      vertex   -7.420364e+001 1.103000e+002 1.115985e+001
    endloop
  endfacet
  facet normal -5.555702e-001 0.000000e+000 -8.314697e-001
    outer loop
      vertex   -7.454428e+001 9.800000e+001 1.138746e+001
      vertex   -7.420364e+001 8.570000e+001 1.115985e+001
      vertex   -7.488493e+001 8.570000e+001 1.161508e+001
    endloop
  endfacet
  facet normal -5.555702e-001 -0.000000e+000 -8.314697e-001
    outer loop
      vertex   -7.454428e+001 9.800000e+001 1.138746e+001
      vertex   -7.420364e+001 1.103000e+002 1.115985e+001
      vertex   -7.420364e+001 8.570000e+001 1.115985e+001
    endloop
  endfacet
  facet normal 0.000000e+000 1.000000e+000 0.000000e+000
    outer loop
      vertex   -8.150000e+001 1.136000e+002 1.370000e+001
      vertex   -7.983324e+001 1.136000e+002 1.120553e+001
      vertex   -8.129447e+001 1.136000e+002 1.266676e+001
    endloop
  endfacet
  facet normal -0.000000e+000 1.000000e+000 -0.000000e+000
    outer loop
      vertex   -7.983324e+001 8.570000e+001 1.120553e+001
      vertex   -8.070919e+001 8.570000e+001 1.179081e+001
      vertex   -8.129447e+001 8.570000e+001 1.266676e+001
    endloop
  endfacet
  facet normal 0.000000e+000 1.000000e+000 0.000000e+000
    outer loop
      vertex   -8.150000e+001 8.570000e+001 1.370000e+001
      vertex   -7.983324e+001 8.570000e+001 1.120553e+001
      vertex   -8.129447e+001 8.570000e+001 1.266676e+001
    endloop
  endfacet
  facet normal 0.000000e+000 -1.000000e+000 0.000000e+000
    outer loop
      vertex   -8.129447e+001 1.103000e+002 1.266676e+001
      vertex   -8.070919e+001 1.103000e+002 1.179081e+001
      vertex   -7.983324e+001 1.103000e+002 1.120553e+001
    endloop
  endfacet
  facet normal -5.555694e-001 -0.000000e+000 -8.314702e-001
    outer loop
      vertex   -8.027122e+001 8.405000e+001 1.149817e+001
      vertex   -7.983324e+001 8.570000e+001 1.120553e+001
      vertex   -7.983324e+001 8.240000e+001 1.120553e+001
    endloop
  endfacet
  facet normal -5.555694e-001 0.000000e+000 -8.314702e-001
    outer loop
      vertex   -8.027122e+001 8.405000e+001 1.149817e+001
      vertex   -7.983324e+001 8.240000e+001 1.120553e+001
      vertex   -8.070919e+001 8.240000e+001 1.179081e+001
    endloop
  endfacet
  facet normal -0.000000e+000 1.000000e+000 -0.000000e+000
    outer loop
      vertex   -7.983324e+001 1.136000e+002 1.120553e+001
      vertex   -8.070919e+001 1.136000e+002 1.179081e+001
      vertex   -8.129447e+001 1.136000e+002 1.266676e+001
    endloop
  endfacet
  facet normal -5.555694e-001 0.000000e+000 -8.314702e-001
    outer loop
      vertex   -8.027122e+001 8.405000e+001 1.149817e+001
      vertex   -8.070919e+001 8.570000e+001 1.179081e+001
      vertex   -7.983324e+001 8.570000e+001 1.120553e+001
    endloop
  endfacet
  facet normal 0.000000e+000 -1.000000e+000 0.000000e+000
    outer loop
      vertex   -8.129447e+001 8.240000e+001 1.266676e+001
      vertex   -8.070919e+001 8.240000e+001 1.179081e+001
      vertex   -7.983324e+001 8.240000e+001 1.120553e+001
    endloop
  endfacet
  facet normal -5.555694e-001 0.000000e+000 -8.314702e-001
    outer loop
      vertex   -8.027122e+001 1.119500e+002 1.149817e+001
      vertex   -7.983324e+001 1.103000e+002 1.120553e+001
      vertex   -8.070919e+001 1.103000e+002 1.179081e+001
    endloop
  endfacet
  facet normal -5.555694e-001 0.000000e+000 -8.314702e-001
    outer loop
      vertex   -8.027122e+001 1.119500e+002 1.149817e+001
      vertex   -8.070919e+001 1.136000e+002 1.179081e+001
      vertex   -7.983324e+001 1.136000e+002 1.120553e+001
    endloop
  endfacet
  facet normal -5.555694e-001 -0.000000e+000 -8.314702e-001
    outer loop
      vertex   -8.027122e+001 1.119500e+002 1.149817e+001
      vertex   -7.983324e+001 1.136000e+002 1.120553e+001
      vertex   -7.983324e+001 1.103000e+002 1.120553e+001
    endloop
  endfacet
  facet normal -5.555702e-001 0.000000e+000 -8.314697e-001
    outer loop
      vertex   -7.454428e+001 9.800000e+001 1.138746e+001
      vertex   -7.488493e+001 8.570000e+001 1.161508e+001
      vertex   -7.488493e+001 1.103000e+002 1.161508e+001
    endloop
  endfacet
  facet normal -5.555694e-001 0.000000e+000 -8.314702e-001
    outer loop
      vertex   -8.027122e+001 1.119500e+002 1.149817e+001
      vertex   -8.070919e+001 1.103000e+002 1.179081e+001
      vertex   -8.070919e+001 1.136000e+002 1.179081e+001
    endloop
  endfacet
  facet normal -5.555694e-001 0.000000e+000 -8.314702e-001
    outer loop
      vertex   -8.027122e+001 8.405000e+001 1.149817e+001
      vertex   -8.070919e+001 8.240000e+001 1.179081e+001
      vertex   -8.070919e+001 8.570000e+001 1.179081e+001
    endloop
  endfacet
  facet normal 0.000000e+000 1.000000e+000 0.000000e+000
    outer loop
      vertex   -7.534015e+001 8.570000e+001 1.229636e+001
      vertex   -7.488493e+001 8.570000e+001 1.161508e+001
      vertex   -8.150000e+001 8.570000e+001 1.370000e+001
    endloop
  endfacet
  facet normal -8.314694e-001 2.794420e-007 -5.555707e-001
    outer loop
      vertex   -7.511253e+001 9.800000e+001 1.195572e+001
      vertex   -7.488493e+001 8.570000e+001 1.161508e+001
      vertex   -7.534015e+001 8.570000e+001 1.229636e+001
    endloop
  endfacet
  facet normal -8.314694e-001 -2.794420e-007 -5.555707e-001
    outer loop
      vertex   -7.511253e+001 9.800000e+001 1.195572e+001
      vertex   -7.534015e+001 1.103000e+002 1.229636e+001
      vertex   -7.488493e+001 1.103000e+002 1.161508e+001
    endloop
  endfacet
  facet normal 0.000000e+000 -1.000000e+000 0.000000e+000
    outer loop
      vertex   -7.534015e+001 1.103000e+002 1.229636e+001
      vertex   -8.150000e+001 1.103000e+002 1.370000e+001
      vertex   -7.488493e+001 1.103000e+002 1.161508e+001
    endloop
  endfacet
  facet normal -8.314739e-001 -0.000000e+000 -5.555637e-001
    outer loop
      vertex   -7.511253e+001 9.800000e+001 1.195572e+001
      vertex   -7.488493e+001 1.103000e+002 1.161508e+001
      vertex   -7.488493e+001 8.570000e+001 1.161508e+001
    endloop
  endfacet
  facet normal -8.314719e-001 -1.543050e-007 -5.555668e-001
    outer loop
      vertex   -8.100183e+001 1.119500e+002 1.222878e+001
      vertex   -8.129447e+001 1.136000e+002 1.266676e+001
      vertex   -8.070919e+001 1.136000e+002 1.179081e+001
    endloop
  endfacet
  facet normal -8.314719e-001 1.714508e-007 -5.555668e-001
    outer loop
      vertex   -8.100183e+001 1.119500e+002 1.222878e+001
      vertex   -8.070919e+001 1.103000e+002 1.179081e+001
      vertex   -8.129447e+001 1.103000e+002 1.266676e+001
    endloop
  endfacet
  facet normal -8.314722e-001 -0.000000e+000 -5.555664e-001
    outer loop
      vertex   -8.100183e+001 1.119500e+002 1.222878e+001
      vertex   -8.070919e+001 1.136000e+002 1.179081e+001
      vertex   -8.070919e+001 1.103000e+002 1.179081e+001
    endloop
  endfacet
  facet normal -8.314719e-001 -1.543057e-007 -5.555668e-001
    outer loop
      vertex   -8.100183e+001 8.405000e+001 1.222878e+001
      vertex   -8.129447e+001 8.570000e+001 1.266676e+001
      vertex   -8.070919e+001 8.570000e+001 1.179081e+001
    endloop
  endfacet
  facet normal -8.314719e-001 1.714500e-007 -5.555668e-001
    outer loop
      vertex   -8.100183e+001 8.405000e+001 1.222878e+001
      vertex   -8.070919e+001 8.240000e+001 1.179081e+001
      vertex   -8.129447e+001 8.240000e+001 1.266676e+001
    endloop
  endfacet
  facet normal -8.314722e-001 -0.000000e+000 -5.555664e-001
    outer loop
      vertex   -8.100183e+001 8.405000e+001 1.222878e+001
      vertex   -8.070919e+001 8.570000e+001 1.179081e+001
      vertex   -8.070919e+001 8.240000e+001 1.179081e+001
    endloop
  endfacet
  facet normal -8.314646e-001 0.000000e+000 -5.555776e-001
    outer loop
      vertex   -7.511253e+001 9.800000e+001 1.195572e+001
      vertex   -7.534015e+001 8.570000e+001 1.229636e+001
      vertex   -7.534015e+001 1.103000e+002 1.229636e+001
    endloop
  endfacet
  facet normal -8.314716e-001 0.000000e+000 -5.555673e-001
    outer loop
      vertex   -8.100183e+001 8.405000e+001 1.222878e+001
      vertex   -8.129447e+001 8.240000e+001 1.266676e+001
      vertex   -8.129447e+001 8.570000e+001 1.266676e+001
    endloop
  endfacet
  facet normal -8.314716e-001 0.000000e+000 -5.555673e-001
    outer loop
      vertex   -8.100183e+001 1.119500e+002 1.222878e+001
      vertex   -8.129447e+001 1.103000e+002 1.266676e+001
      vertex   -8.129447e+001 1.136000e+002 1.266676e+001
    endloop
  endfacet
  facet normal -9.807857e-001 7.392646e-009 -1.950880e-001
    outer loop
      vertex   -7.542007e+001 9.800000e+001 1.269818e+001
      vertex   -7.534015e+001 8.570000e+001 1.229636e+001
      vertex   -7.550000e+001 8.570000e+001 1.310000e+001
    endloop
  endfacet
  facet normal 0.000000e+000 -1.000000e+000 0.000000e+000
    outer loop
      vertex   -7.550000e+001 1.103000e+002 1.310000e+001
      vertex   -8.150000e+001 1.103000e+002 1.370000e+001
      vertex   -7.534015e+001 1.103000e+002 1.229636e+001
    endloop
  endfacet
  facet normal 0.000000e+000 1.000000e+000 0.000000e+000
    outer loop
      vertex   -7.550000e+001 8.570000e+001 1.310000e+001
      vertex   -7.534015e+001 8.570000e+001 1.229636e+001
      vertex   -8.150000e+001 8.570000e+001 1.370000e+001
    endloop
  endfacet
  facet normal -9.807858e-001 -0.000000e+000 -1.950878e-001
    outer loop
      vertex   -7.542007e+001 9.800000e+001 1.269818e+001
      vertex   -7.534015e+001 1.103000e+002 1.229636e+001
      vertex   -7.534015e+001 8.570000e+001 1.229636e+001
    endloop
  endfacet
  facet normal -9.807857e-001 -7.392646e-009 -1.950880e-001
    outer loop
      vertex   -7.542007e+001 9.800000e+001 1.269818e+001
      vertex   -7.550000e+001 1.103000e+002 1.310000e+001
      vertex   -7.534015e+001 1.103000e+002 1.229636e+001
    endloop
  endfacet
  facet normal -9.807848e-001 -2.267430e-006 -1.950931e-001
    outer loop
      vertex   -8.139724e+001 1.119500e+002 1.318338e+001
      vertex   -8.129447e+001 1.103000e+002 1.266676e+001
      vertex   -8.150000e+001 1.103000e+002 1.370000e+001
    endloop
  endfacet
  facet normal -9.807833e-001 -0.000000e+000 -1.951001e-001
    outer loop
      vertex   -8.139724e+001 8.405000e+001 1.318338e+001
      vertex   -8.129447e+001 8.570000e+001 1.266676e+001
      vertex   -8.129447e+001 8.240000e+001 1.266676e+001
    endloop
  endfacet
  facet normal -9.807848e-001 -2.267419e-006 -1.950931e-001
    outer loop
      vertex   -8.139724e+001 8.405000e+001 1.318338e+001
      vertex   -8.129447e+001 8.240000e+001 1.266676e+001
      vertex   -8.150000e+001 8.240000e+001 1.370000e+001
    endloop
  endfacet
  facet normal -9.807848e-001 2.267430e-006 -1.950931e-001
    outer loop
      vertex   -8.139724e+001 8.405000e+001 1.318338e+001
      vertex   -8.150000e+001 8.570000e+001 1.370000e+001
      vertex   -8.129447e+001 8.570000e+001 1.266676e+001
    endloop
  endfacet
  facet normal -9.807848e-001 2.267419e-006 -1.950931e-001
    outer loop
      vertex   -8.139724e+001 1.119500e+002 1.318338e+001
      vertex   -8.150000e+001 1.136000e+002 1.370000e+001
      vertex   -8.129447e+001 1.136000e+002 1.266676e+001
    endloop
  endfacet
  facet normal -9.807833e-001 -0.000000e+000 -1.951001e-001
    outer loop
      vertex   -8.139724e+001 1.119500e+002 1.318338e+001
      vertex   -8.129447e+001 1.136000e+002 1.266676e+001
      vertex   -8.129447e+001 1.103000e+002 1.266676e+001
    endloop
  endfacet
  facet normal -9.807857e-001 0.000000e+000 -1.950882e-001
    outer loop
      vertex   -7.542007e+001 9.800000e+001 1.269818e+001
      vertex   -7.550000e+001 8.570000e+001 1.310000e+001
      vertex   -7.550000e+001 1.103000e+002 1.310000e+001
    endloop
  endfacet
  facet normal -1.000000e+000 -0.000000e+000 0.000000e+000
    outer loop
      vertex   -7.550000e+001 9.711612e+001 2.548388e+001
      vertex   -7.550000e+001 9.684515e+001 2.507835e+001
      vertex   -7.550000e+001 8.570000e+001 1.310000e+001
    endloop
  endfacet
  facet normal -1.000000e+000 0.000000e+000 0.000000e+000
    outer loop
      vertex   -7.550000e+001 9.800000e+001 2.335000e+001
      vertex   -7.550000e+001 8.570000e+001 1.310000e+001
      vertex   -7.550000e+001 9.752164e+001 2.344515e+001
    endloop
  endfacet
  facet normal -1.000000e+000 0.000000e+000 0.000000e+000
    outer loop
      vertex   -7.550000e+001 9.888388e+001 2.371612e+001
      vertex   -7.550000e+001 8.570000e+001 1.310000e+001
      vertex   -7.550000e+001 9.847836e+001 2.344515e+001
    endloop
  endfacet
  facet normal -1.000000e+000 0.000000e+000 0.000000e+000
    outer loop
      vertex   -7.550000e+001 9.847836e+001 2.344515e+001
      vertex   -7.550000e+001 8.570000e+001 1.310000e+001
      vertex   -7.550000e+001 9.800000e+001 2.335000e+001
    endloop
  endfacet
  facet normal -1.000000e+000 -0.000000e+000 0.000000e+000
    outer loop
      vertex   -7.550000e+001 8.570000e+001 5.106015e+001
      vertex   -7.550000e+001 9.711612e+001 2.548388e+001
      vertex   -7.550000e+001 8.570000e+001 1.310000e+001
    endloop
  endfacet
  facet normal -1.000000e+000 0.000000e+000 0.000000e+000
    outer loop
      vertex   -7.550000e+001 1.103000e+002 1.310000e+001
      vertex   -7.550000e+001 9.915485e+001 2.507835e+001
      vertex   -7.550000e+001 8.570000e+001 5.106015e+001
    endloop
  endfacet
  facet normal -1.000000e+000 -0.000000e+000 0.000000e+000
    outer loop
      vertex   -7.550000e+001 9.684515e+001 2.507835e+001
      vertex   -7.550000e+001 9.675000e+001 2.460000e+001
      vertex   -7.550000e+001 8.570000e+001 1.310000e+001
    endloop
  endfacet
  facet normal -1.000000e+000 0.000000e+000 0.000000e+000
    outer loop
      vertex   -7.550000e+001 1.103000e+002 1.310000e+001
      vertex   -7.550000e+001 9.925000e+001 2.460000e+001
      vertex   -7.550000e+001 9.915485e+001 2.507835e+001
    endloop
  endfacet
  facet normal -1.000000e+000 0.000000e+000 0.000000e+000
    outer loop
      vertex   -7.550000e+001 1.103000e+002 1.310000e+001
      vertex   -7.550000e+001 9.915485e+001 2.412165e+001
      vertex   -7.550000e+001 9.925000e+001 2.460000e+001
    endloop
  endfacet
  facet normal -1.000000e+000 0.000000e+000 0.000000e+000
    outer loop
      vertex   -7.550000e+001 1.103000e+002 1.310000e+001
      vertex   -7.550000e+001 9.888388e+001 2.371612e+001
      vertex   -7.550000e+001 9.915485e+001 2.412165e+001
    endloop
  endfacet
  facet normal -1.000000e+000 0.000000e+000 0.000000e+000
    outer loop
      vertex   -7.550000e+001 1.103000e+002 1.310000e+001
      vertex   -7.550000e+001 8.570000e+001 1.310000e+001
      vertex   -7.550000e+001 9.888388e+001 2.371612e+001
    endloop
  endfacet
  facet normal -1.000000e+000 0.000000e+000 0.000000e+000
    outer loop
      vertex   -7.550000e+001 1.103000e+002 5.106015e+001
      vertex   -7.550000e+001 1.103000e+002 1.310000e+001
      vertex   -7.550000e+001 8.570000e+001 5.106015e+001
    endloop
  endfacet
  facet normal -1.000000e+000 -0.000000e+000 0.000000e+000
    outer loop
      vertex   -7.550000e+001 9.675000e+001 2.460000e+001
      vertex   -7.550000e+001 9.684515e+001 2.412165e+001
      vertex   -7.550000e+001 8.570000e+001 1.310000e+001
    endloop
  endfacet
  facet normal 0.000000e+000 -1.000000e+000 0.000000e+000
    outer loop
      vertex   -8.150000e+001 1.103000e+002 5.182132e+001
      vertex   -8.150000e+001 1.103000e+002 1.370000e+001
      vertex   -7.550000e+001 1.103000e+002 1.310000e+001
    endloop
  endfacet
  facet normal 0.000000e+000 -1.000000e+000 0.000000e+000
    outer loop
      vertex   -7.650000e+001 1.103000e+002 5.182132e+001
      vertex   -8.150000e+001 1.103000e+002 5.182132e+001
      vertex   -7.550000e+001 1.103000e+002 1.310000e+001
    endloop
  endfacet
  facet normal 0.000000e+000 -1.000000e+000 0.000000e+000
    outer loop
      vertex   -7.550000e+001 1.103000e+002 5.106015e+001
      vertex   -7.650000e+001 1.103000e+002 5.182132e+001
      vertex   -7.550000e+001 1.103000e+002 1.310000e+001
    endloop
  endfacet
  facet normal -1.000000e+000 0.000000e+000 0.000000e+000
    outer loop
      vertex   -7.550000e+001 9.752164e+001 2.344515e+001
      vertex   -7.550000e+001 8.570000e+001 1.310000e+001
      vertex   -7.550000e+001 9.711612e+001 2.371612e+001
    endloop
  endfacet
  facet normal -1.000000e+000 0.000000e+000 0.000000e+000
    outer loop
      vertex   -7.550000e+001 9.711612e+001 2.371612e+001
      vertex   -7.550000e+001 8.570000e+001 1.310000e+001
      vertex   -7.550000e+001 9.684515e+001 2.412165e+001
    endloop
  endfacet
  facet normal 0.000000e+000 1.000000e+000 0.000000e+000
    outer loop
      vertex   -8.150000e+001 8.570000e+001 5.182132e+001
      vertex   -7.550000e+001 8.570000e+001 1.310000e+001
      vertex   -8.150000e+001 8.570000e+001 1.370000e+001
    endloop
  endfacet
  facet normal 0.000000e+000 1.000000e+000 0.000000e+000
    outer loop
      vertex   -7.650000e+001 8.570000e+001 5.182132e+001
      vertex   -7.550000e+001 8.570000e+001 1.310000e+001
      vertex   -8.150000e+001 8.570000e+001 5.182132e+001
    endloop
  endfacet
  facet normal 0.000000e+000 1.000000e+000 -0.000000e+000
    outer loop
      vertex   -7.550000e+001 8.570000e+001 5.106015e+001
      vertex   -7.550000e+001 8.570000e+001 1.310000e+001
      vertex   -7.650000e+001 8.570000e+001 5.182132e+001
    endloop
  endfacet
  facet normal -9.807861e-001 0.000000e+000 -1.950861e-001
    outer loop
      vertex   -8.139724e+001 8.405000e+001 1.318338e+001
      vertex   -8.150000e+001 8.240000e+001 1.370000e+001
      vertex   -8.150000e+001 8.570000e+001 1.370000e+001
    endloop
  endfacet
  facet normal -9.807861e-001 0.000000e+000 -1.950861e-001
    outer loop
      vertex   -8.139724e+001 1.119500e+002 1.318338e+001
      vertex   -8.150000e+001 1.103000e+002 1.370000e+001
      vertex   -8.150000e+001 1.136000e+002 1.370000e+001
    endloop
  endfacet
  facet normal 1.000000e+000 0.000000e+000 0.000000e+000
    outer loop
      vertex   -2.760000e+001 9.800000e+001 1.340000e+001
      vertex   -2.760000e+001 1.106000e+002 1.460000e+001
      vertex   -2.760000e+001 8.540000e+001 1.460000e+001
    endloop
  endfacet
  facet normal 1.000000e+000 0.000000e+000 0.000000e+000
    outer loop
      vertex   -2.760000e+001 9.800000e+001 1.340000e+001
      vertex   -2.760000e+001 1.136000e+002 1.460000e+001
      vertex   -2.760000e+001 1.106000e+002 1.460000e+001
    endloop
  endfacet
  facet normal 1.000000e+000 0.000000e+000 0.000000e+000
    outer loop
      vertex   -2.760000e+001 9.800000e+001 1.340000e+001
      vertex   -2.760000e+001 8.540000e+001 1.460000e+001
      vertex   -2.760000e+001 8.240000e+001 1.460000e+001
    endloop
  endfacet
  facet normal -1.000000e+000 0.000000e+000 0.000000e+000
    outer loop
      vertex   -8.150000e+001 1.120000e+002 2.882132e+001
      vertex   -8.150000e+001 1.136000e+002 1.370000e+001
      vertex   -8.150000e+001 1.103000e+002 1.370000e+001
    endloop
  endfacet
  facet normal -1.000000e+000 0.000000e+000 0.000000e+000
    outer loop
      vertex   -8.150000e+001 8.400000e+001 5.182132e+001
      vertex   -8.150000e+001 8.570000e+001 1.370000e+001
      vertex   -8.150000e+001 8.400000e+001 2.882132e+001
    endloop
  endfacet
  facet normal -1.000000e+000 0.000000e+000 0.000000e+000
    outer loop
      vertex   -8.150000e+001 8.570000e+001 5.182132e+001
      vertex   -8.150000e+001 8.570000e+001 1.370000e+001
      vertex   -8.150000e+001 8.400000e+001 5.182132e+001
    endloop
  endfacet
  facet normal -1.000000e+000 0.000000e+000 0.000000e+000
    outer loop
      vertex   -8.150000e+001 1.136000e+002 2.882132e+001
      vertex   -8.150000e+001 1.136000e+002 1.370000e+001
      vertex   -8.150000e+001 1.120000e+002 2.882132e+001
    endloop
  endfacet
  facet normal -1.000000e+000 -0.000000e+000 0.000000e+000
    outer loop
      vertex   -8.150000e+001 1.103000e+002 5.182132e+001
      vertex   -8.150000e+001 1.120000e+002 2.882132e+001
      vertex   -8.150000e+001 1.103000e+002 1.370000e+001
    endloop
  endfacet
  facet normal -1.000000e+000 0.000000e+000 0.000000e+000
    outer loop
      vertex   -8.150000e+001 8.400000e+001 2.882132e+001
      vertex   -8.150000e+001 8.570000e+001 1.370000e+001
      vertex   -8.150000e+001 8.240000e+001 2.882132e+001
    endloop
  endfacet
  facet normal -1.000000e+000 0.000000e+000 0.000000e+000
    outer loop
      vertex   -8.150000e+001 8.240000e+001 2.882132e+001
      vertex   -8.150000e+001 8.570000e+001 1.370000e+001
      vertex   -8.150000e+001 8.240000e+001 1.370000e+001
    endloop
  endfacet
  facet normal 1.000000e+000 0.000000e+000 0.000000e+000
    outer loop
      vertex   -7.350000e+001 9.800000e+001 2.335000e+001
      vertex   -7.350000e+001 9.752164e+001 2.344515e+001
      vertex   -7.350000e+001 8.540000e+001 1.460000e+001
    endloop
  endfacet
  facet normal 1.000000e+000 0.000000e+000 0.000000e+000
    outer loop
      vertex   -7.350000e+001 9.711612e+001 2.548388e+001
      vertex   -7.350000e+001 8.540000e+001 1.460000e+001
      vertex   -7.350000e+001 9.684515e+001 2.507835e+001
    endloop
  endfacet
  facet normal 1.000000e+000 0.000000e+000 0.000000e+000
    outer loop
      vertex   -7.350000e+001 8.540000e+001 4.953780e+001
      vertex   -7.350000e+001 8.540000e+001 1.460000e+001
      vertex   -7.350000e+001 9.711612e+001 2.548388e+001
    endloop
  endfacet
  facet normal 1.000000e+000 -0.000000e+000 0.000000e+000
    outer loop
      vertex   -7.350000e+001 9.847836e+001 2.344515e+001
      vertex   -7.350000e+001 9.800000e+001 2.335000e+001
      vertex   -7.350000e+001 8.540000e+001 1.460000e+001
    endloop
  endfacet
  facet normal 1.000000e+000 0.000000e+000 0.000000e+000
    outer loop
      vertex   -7.350000e+001 9.684515e+001 2.507835e+001
      vertex   -7.350000e+001 8.540000e+001 1.460000e+001
      vertex   -7.350000e+001 9.675000e+001 2.460000e+001
    endloop
  endfacet
  facet normal 1.000000e+000 -0.000000e+000 0.000000e+000
    outer loop
      vertex   -7.350000e+001 9.888388e+001 2.371612e+001
      vertex   -7.350000e+001 9.847836e+001 2.344515e+001
      vertex   -7.350000e+001 8.540000e+001 1.460000e+001
    endloop
  endfacet
  facet normal 1.000000e+000 0.000000e+000 0.000000e+000
    outer loop
      vertex   -7.350000e+001 1.106000e+002 1.460000e+001
      vertex   -7.350000e+001 8.540000e+001 4.953780e+001
      vertex   -7.350000e+001 9.915485e+001 2.507835e+001
    endloop
  endfacet
  facet normal 1.000000e+000 0.000000e+000 0.000000e+000
    outer loop
      vertex   -7.350000e+001 1.106000e+002 1.460000e+001
      vertex   -7.350000e+001 9.915485e+001 2.507835e+001
      vertex   -7.350000e+001 9.925000e+001 2.460000e+001
    endloop
  endfacet
  facet normal 1.000000e+000 0.000000e+000 0.000000e+000
    outer loop
      vertex   -7.350000e+001 1.106000e+002 1.460000e+001
      vertex   -7.350000e+001 9.925000e+001 2.460000e+001
      vertex   -7.350000e+001 9.915485e+001 2.412165e+001
    endloop
  endfacet
  facet normal 1.000000e+000 0.000000e+000 0.000000e+000
    outer loop
      vertex   -7.350000e+001 1.106000e+002 1.460000e+001
      vertex   -7.350000e+001 9.915485e+001 2.412165e+001
      vertex   -7.350000e+001 9.888388e+001 2.371612e+001
    endloop
  endfacet
  facet normal 1.000000e+000 0.000000e+000 0.000000e+000
    outer loop
      vertex   -7.350000e+001 1.106000e+002 1.460000e+001
      vertex   -7.350000e+001 9.888388e+001 2.371612e+001
      vertex   -7.350000e+001 8.540000e+001 1.460000e+001
    endloop
  endfacet
  facet normal 1.000000e+000 0.000000e+000 0.000000e+000
    outer loop
      vertex   -7.350000e+001 9.675000e+001 2.460000e+001
      vertex   -7.350000e+001 8.540000e+001 1.460000e+001
      vertex   -7.350000e+001 9.684515e+001 2.412165e+001
    endloop
  endfacet
  facet normal 6.056743e-001 -1.655298e-007 7.957126e-001
    outer loop
      vertex   -2.760000e+001 8.240000e+001 1.460000e+001
      vertex   -7.350000e+001 8.540000e+001 4.953780e+001
      vertex   -7.650000e+001 8.240000e+001 5.182132e+001
    endloop
  endfacet
  facet normal 6.056743e-001 0.000000e+000 7.957126e-001
    outer loop
      vertex   -2.760000e+001 1.136000e+002 1.460000e+001
      vertex   -7.650000e+001 1.136000e+002 5.182132e+001
      vertex   -2.760000e+001 1.106000e+002 1.460000e+001
    endloop
  endfacet
  facet normal 6.056743e-001 1.763487e-007 7.957127e-001
    outer loop
      vertex   -2.760000e+001 1.106000e+002 1.460000e+001
      vertex   -7.650000e+001 1.136000e+002 5.182132e+001
      vertex   -7.350000e+001 1.106000e+002 4.953780e+001
    endloop
  endfacet
  facet normal 6.056743e-001 0.000000e+000 7.957127e-001
    outer loop
      vertex   -2.760000e+001 8.540000e+001 1.460000e+001
      vertex   -7.350000e+001 8.540000e+001 4.953780e+001
      vertex   -2.760000e+001 8.240000e+001 1.460000e+001
    endloop
  endfacet
  facet normal 1.000000e+000 0.000000e+000 0.000000e+000
    outer loop
      vertex   -7.350000e+001 9.752164e+001 2.344515e+001
      vertex   -7.350000e+001 9.711612e+001 2.371612e+001
      vertex   -7.350000e+001 8.540000e+001 1.460000e+001
    endloop
  endfacet
  facet normal 1.000000e+000 0.000000e+000 0.000000e+000
    outer loop
      vertex   -7.350000e+001 9.711612e+001 2.371612e+001
      vertex   -7.350000e+001 9.684515e+001 2.412165e+001
      vertex   -7.350000e+001 8.540000e+001 1.460000e+001
    endloop
  endfacet
  facet normal 1.000000e+000 -0.000000e+000 0.000000e+000
    outer loop
      vertex   -7.350000e+001 1.106000e+002 4.953780e+001
      vertex   -7.350000e+001 8.540000e+001 4.953780e+001
      vertex   -7.350000e+001 1.106000e+002 1.460000e+001
    endloop
  endfacet
  facet normal 0.000000e+000 0.000000e+000 1.000000e+000
    outer loop
      vertex   -5.055000e+001 9.800000e+001 1.460000e+001
      vertex   -7.350000e+001 8.540000e+001 1.460000e+001
      vertex   -2.760000e+001 8.540000e+001 1.460000e+001
    endloop
  endfacet
  facet normal 0.000000e+000 0.000000e+000 1.000000e+000
    outer loop
      vertex   -5.055000e+001 9.800000e+001 1.460000e+001
      vertex   -7.350000e+001 1.106000e+002 1.460000e+001
      vertex   -7.350000e+001 8.540000e+001 1.460000e+001
    endloop
  endfacet
  facet normal 0.000000e+000 0.000000e+000 1.000000e+000
    outer loop
      vertex   -5.055000e+001 9.800000e+001 1.460000e+001
      vertex   -2.760000e+001 1.106000e+002 1.460000e+001
      vertex   -7.350000e+001 1.106000e+002 1.460000e+001
    endloop
  endfacet
  facet normal 0.000000e+000 1.000000e+000 0.000000e+000
    outer loop
      vertex   -5.820000e+001 8.540000e+001 2.624594e+001
      vertex   -2.760000e+001 8.540000e+001 1.460000e+001
      vertex   -7.350000e+001 8.540000e+001 1.460000e+001
    endloop
  endfacet
  facet normal 0.000000e+000 -1.000000e+000 0.000000e+000
    outer loop
      vertex   -5.820000e+001 1.106000e+002 2.624594e+001
      vertex   -2.760000e+001 1.106000e+002 1.460000e+001
      vertex   -7.350000e+001 1.106000e+002 4.953780e+001
    endloop
  endfacet
  facet normal 0.000000e+000 -0.000000e+000 1.000000e+000
    outer loop
      vertex   -5.055000e+001 9.800000e+001 1.460000e+001
      vertex   -2.760000e+001 8.540000e+001 1.460000e+001
      vertex   -2.760000e+001 1.106000e+002 1.460000e+001
    endloop
  endfacet
  facet normal 0.000000e+000 1.000000e+000 0.000000e+000
    outer loop
      vertex   -5.820000e+001 8.540000e+001 2.624594e+001
      vertex   -7.350000e+001 8.540000e+001 1.460000e+001
      vertex   -7.350000e+001 8.540000e+001 4.953780e+001
    endloop
  endfacet
  facet normal 0.000000e+000 -1.000000e+000 0.000000e+000
    outer loop
      vertex   -5.820000e+001 1.106000e+002 2.624594e+001
      vertex   -7.350000e+001 1.106000e+002 4.953780e+001
      vertex   -7.350000e+001 1.106000e+002 1.460000e+001
    endloop
  endfacet
  facet normal 0.000000e+000 1.000000e+000 0.000000e+000
    outer loop
      vertex   -5.820000e+001 8.540000e+001 2.624594e+001
      vertex   -7.350000e+001 8.540000e+001 4.953780e+001
      vertex   -2.760000e+001 8.540000e+001 1.460000e+001
    endloop
  endfacet
  facet normal 0.000000e+000 -1.000000e+000 0.000000e+000
    outer loop
      vertex   -5.820000e+001 1.106000e+002 2.624594e+001
      vertex   -7.350000e+001 1.106000e+002 1.460000e+001
      vertex   -2.760000e+001 1.106000e+002 1.460000e+001
    endloop
  endfacet
  facet normal 0.000000e+000 1.950857e-001 9.807861e-001
    outer loop
      vertex   -7.450000e+001 9.776082e+001 2.339758e+001
      vertex   -7.350000e+001 9.800000e+001 2.335000e+001
      vertex   -7.550000e+001 9.800000e+001 2.335000e+001
    endloop
  endfacet
  facet normal 0.000000e+000 -1.950857e-001 9.807861e-001
    outer loop
      vertex   -7.450000e+001 9.823918e+001 2.339758e+001
      vertex   -7.550000e+001 9.800000e+001 2.335000e+001
      vertex   -7.350000e+001 9.800000e+001 2.335000e+001
    endloop
  endfacet
  facet normal 7.447116e-007 1.950887e-001 9.807855e-001
    outer loop
      vertex   -7.450000e+001 9.776082e+001 2.339758e+001
      vertex   -7.550000e+001 9.800000e+001 2.335000e+001
      vertex   -7.550000e+001 9.752164e+001 2.344515e+001
    endloop
  endfacet
  facet normal 7.447116e-007 -1.950887e-001 9.807855e-001
    outer loop
      vertex   -7.450000e+001 9.823918e+001 2.339758e+001
      vertex   -7.550000e+001 9.847836e+001 2.344515e+001
      vertex   -7.550000e+001 9.800000e+001 2.335000e+001
    endloop
  endfacet
  facet normal -7.447116e-007 1.950887e-001 9.807855e-001
    outer loop
      vertex   -7.450000e+001 9.776082e+001 2.339758e+001
      vertex   -7.350000e+001 9.752164e+001 2.344515e+001
      vertex   -7.350000e+001 9.800000e+001 2.335000e+001
    endloop
  endfacet
  facet normal -7.447116e-007 -1.950887e-001 9.807855e-001
    outer loop
      vertex   -7.450000e+001 9.823918e+001 2.339758e+001
      vertex   -7.350000e+001 9.800000e+001 2.335000e+001
      vertex   -7.350000e+001 9.847836e+001 2.344515e+001
    endloop
  endfacet
  facet normal 0.000000e+000 -1.950917e-001 9.807850e-001
    outer loop
      vertex   -7.450000e+001 9.823918e+001 2.339758e+001
      vertex   -7.350000e+001 9.847836e+001 2.344515e+001
      vertex   -7.550000e+001 9.847836e+001 2.344515e+001
    endloop
  endfacet
  facet normal -0.000000e+000 1.950917e-001 9.807850e-001
    outer loop
      vertex   -7.450000e+001 9.776082e+001 2.339758e+001
      vertex   -7.550000e+001 9.752164e+001 2.344515e+001
      vertex   -7.350000e+001 9.752164e+001 2.344515e+001
    endloop
  endfacet
  facet normal 0.000000e+000 5.555663e-001 8.314722e-001
    outer loop
      vertex   -7.450000e+001 9.731888e+001 2.358063e+001
      vertex   -7.350000e+001 9.752164e+001 2.344515e+001
      vertex   -7.550000e+001 9.752164e+001 2.344515e+001
    endloop
  endfacet
  facet normal -2.115764e-006 5.555735e-001 8.314674e-001
    outer loop
      vertex   -7.450000e+001 9.731888e+001 2.358063e+001
      vertex   -7.350000e+001 9.711612e+001 2.371612e+001
      vertex   -7.350000e+001 9.752164e+001 2.344515e+001
    endloop
  endfacet
  facet normal 2.123403e-006 5.555735e-001 8.314674e-001
    outer loop
      vertex   -7.450000e+001 9.731888e+001 2.358063e+001
      vertex   -7.550000e+001 9.752164e+001 2.344515e+001
      vertex   -7.550000e+001 9.711612e+001 2.371612e+001
    endloop
  endfacet
  facet normal 2.115764e-006 -5.555735e-001 8.314674e-001
    outer loop
      vertex   -7.450000e+001 9.868112e+001 2.358063e+001
      vertex   -7.550000e+001 9.888388e+001 2.371612e+001
      vertex   -7.550000e+001 9.847836e+001 2.344515e+001
    endloop
  endfacet
  facet normal -2.123403e-006 -5.555735e-001 8.314674e-001
    outer loop
      vertex   -7.450000e+001 9.868112e+001 2.358063e+001
      vertex   -7.350000e+001 9.847836e+001 2.344515e+001
      vertex   -7.350000e+001 9.888388e+001 2.371612e+001
    endloop
  endfacet
  facet normal 0.000000e+000 -5.555663e-001 8.314722e-001
    outer loop
      vertex   -7.450000e+001 9.868112e+001 2.358063e+001
      vertex   -7.550000e+001 9.847836e+001 2.344515e+001
      vertex   -7.350000e+001 9.847836e+001 2.344515e+001
    endloop
  endfacet
  facet normal 0.000000e+000 -5.555807e-001 8.314626e-001
    outer loop
      vertex   -7.450000e+001 9.868112e+001 2.358063e+001
      vertex   -7.350000e+001 9.888388e+001 2.371612e+001
      vertex   -7.550000e+001 9.888388e+001 2.371612e+001
    endloop
  endfacet
  facet normal -0.000000e+000 5.555807e-001 8.314626e-001
    outer loop
      vertex   -7.450000e+001 9.731888e+001 2.358063e+001
      vertex   -7.550000e+001 9.711612e+001 2.371612e+001
      vertex   -7.350000e+001 9.711612e+001 2.371612e+001
    endloop
  endfacet
  facet normal -5.346645e-007 -8.314711e-001 5.555681e-001
    outer loop
      vertex   -7.450000e+001 9.901936e+001 2.391888e+001
      vertex   -7.550000e+001 9.915485e+001 2.412165e+001
      vertex   -7.550000e+001 9.888388e+001 2.371612e+001
    endloop
  endfacet
  facet normal -5.270264e-007 8.314711e-001 5.555681e-001
    outer loop
      vertex   -7.450000e+001 9.698064e+001 2.391888e+001
      vertex   -7.550000e+001 9.711612e+001 2.371612e+001
      vertex   -7.550000e+001 9.684515e+001 2.412165e+001
    endloop
  endfacet
  facet normal 5.270264e-007 -8.314711e-001 5.555681e-001
    outer loop
      vertex   -7.450000e+001 9.901936e+001 2.391888e+001
      vertex   -7.350000e+001 9.888388e+001 2.371612e+001
      vertex   -7.350000e+001 9.915485e+001 2.412165e+001
    endloop
  endfacet
  facet normal 0.000000e+000 8.314722e-001 5.555663e-001
    outer loop
      vertex   -7.450000e+001 9.698064e+001 2.391888e+001
      vertex   -7.350000e+001 9.711612e+001 2.371612e+001
      vertex   -7.550000e+001 9.711612e+001 2.371612e+001
    endloop
  endfacet
  facet normal 5.346645e-007 8.314711e-001 5.555681e-001
    outer loop
      vertex   -7.450000e+001 9.698064e+001 2.391888e+001
      vertex   -7.350000e+001 9.684515e+001 2.412165e+001
      vertex   -7.350000e+001 9.711612e+001 2.371612e+001
    endloop
  endfacet
  facet normal 0.000000e+000 -8.314722e-001 5.555663e-001
    outer loop
      vertex   -7.450000e+001 9.901936e+001 2.391888e+001
      vertex   -7.550000e+001 9.888388e+001 2.371612e+001
      vertex   -7.350000e+001 9.888388e+001 2.371612e+001
    endloop
  endfacet
  facet normal -0.000000e+000 8.314698e-001 5.555699e-001
    outer loop
      vertex   -7.450000e+001 9.698064e+001 2.391888e+001
      vertex   -7.550000e+001 9.684515e+001 2.412165e+001
      vertex   -7.350000e+001 9.684515e+001 2.412165e+001
    endloop
  endfacet
  facet normal 0.000000e+000 -8.314698e-001 5.555699e-001
    outer loop
      vertex   -7.450000e+001 9.901936e+001 2.391888e+001
      vertex   -7.350000e+001 9.915485e+001 2.412165e+001
      vertex   -7.550000e+001 9.915485e+001 2.412165e+001
    endloop
  endfacet
  facet normal 0.000000e+000 -9.807838e-001 1.950977e-001
    outer loop
      vertex   -7.450000e+001 9.920242e+001 2.436082e+001
      vertex   -7.550000e+001 9.915485e+001 2.412165e+001
      vertex   -7.350000e+001 9.915485e+001 2.412165e+001
    endloop
  endfacet
  facet normal 0.000000e+000 9.807838e-001 1.950977e-001
    outer loop
      vertex   -7.450000e+001 9.679758e+001 2.436082e+001
      vertex   -7.350000e+001 9.684515e+001 2.412165e+001
      vertex   -7.550000e+001 9.684515e+001 2.412165e+001
    endloop
  endfacet
  facet normal 1.871331e-007 -9.807840e-001 1.950970e-001
    outer loop
      vertex   -7.450000e+001 9.920242e+001 2.436082e+001
      vertex   -7.550000e+001 9.925000e+001 2.460000e+001
      vertex   -7.550000e+001 9.915485e+001 2.412165e+001
    endloop
  endfacet
  facet normal -1.871331e-007 -9.807840e-001 1.950970e-001
    outer loop
      vertex   -7.450000e+001 9.920242e+001 2.436082e+001
      vertex   -7.350000e+001 9.915485e+001 2.412165e+001
      vertex   -7.350000e+001 9.925000e+001 2.460000e+001
    endloop
  endfacet
  facet normal 1.871331e-007 9.807840e-001 1.950970e-001
    outer loop
      vertex   -7.450000e+001 9.679758e+001 2.436082e+001
      vertex   -7.550000e+001 9.684515e+001 2.412165e+001
      vertex   -7.550000e+001 9.675000e+001 2.460000e+001
    endloop
  endfacet
  facet normal -1.871331e-007 9.807840e-001 1.950970e-001
    outer loop
      vertex   -7.450000e+001 9.679758e+001 2.436082e+001
      vertex   -7.350000e+001 9.675000e+001 2.460000e+001
      vertex   -7.350000e+001 9.684515e+001 2.412165e+001
    endloop
  endfacet
  facet normal 0.000000e+000 -9.807841e-001 1.950962e-001
    outer loop
      vertex   -7.450000e+001 9.920242e+001 2.436082e+001
      vertex   -7.350000e+001 9.925000e+001 2.460000e+001
      vertex   -7.550000e+001 9.925000e+001 2.460000e+001
    endloop
  endfacet
  facet normal -0.000000e+000 9.807841e-001 1.950962e-001
    outer loop
      vertex   -7.450000e+001 9.679758e+001 2.436082e+001
      vertex   -7.550000e+001 9.675000e+001 2.460000e+001
      vertex   -7.350000e+001 9.675000e+001 2.460000e+001
    endloop
  endfacet
  facet normal -1.871331e-007 -9.807840e-001 -1.950970e-001
    outer loop
      vertex   -7.450000e+001 9.920242e+001 2.483918e+001
      vertex   -7.350000e+001 9.925000e+001 2.460000e+001
      vertex   -7.350000e+001 9.915485e+001 2.507835e+001
    endloop
  endfacet
  facet normal 1.871331e-007 -9.807840e-001 -1.950970e-001
    outer loop
      vertex   -7.450000e+001 9.920242e+001 2.483918e+001
      vertex   -7.550000e+001 9.915485e+001 2.507835e+001
      vertex   -7.550000e+001 9.925000e+001 2.460000e+001
    endloop
  endfacet
  facet normal 1.871331e-007 9.807840e-001 -1.950970e-001
    outer loop
      vertex   -7.450000e+001 9.679758e+001 2.483918e+001
      vertex   -7.550000e+001 9.675000e+001 2.460000e+001
      vertex   -7.550000e+001 9.684515e+001 2.507835e+001
    endloop
  endfacet
  facet normal -1.871331e-007 9.807840e-001 -1.950970e-001
    outer loop
      vertex   -7.450000e+001 9.679758e+001 2.483918e+001
      vertex   -7.350000e+001 9.684515e+001 2.507835e+001
      vertex   -7.350000e+001 9.675000e+001 2.460000e+001
    endloop
  endfacet
  facet normal 0.000000e+000 -9.807841e-001 -1.950962e-001
    outer loop
      vertex   -7.450000e+001 9.920242e+001 2.483918e+001
      vertex   -7.550000e+001 9.925000e+001 2.460000e+001
      vertex   -7.350000e+001 9.925000e+001 2.460000e+001
    endloop
  endfacet
  facet normal 0.000000e+000 9.807841e-001 -1.950962e-001
    outer loop
      vertex   -7.450000e+001 9.679758e+001 2.483918e+001
      vertex   -7.350000e+001 9.675000e+001 2.460000e+001
      vertex   -7.550000e+001 9.675000e+001 2.460000e+001
    endloop
  endfacet
  facet normal 0.000000e+000 9.807838e-001 -1.950977e-001
    outer loop
      vertex   -7.450000e+001 9.679758e+001 2.483918e+001
      vertex   -7.550000e+001 9.684515e+001 2.507835e+001
      vertex   -7.350000e+001 9.684515e+001 2.507835e+001
    endloop
  endfacet
  facet normal -0.000000e+000 -9.807838e-001 -1.950977e-001
    outer loop
      vertex   -7.450000e+001 9.920242e+001 2.483918e+001
      vertex   -7.350000e+001 9.915485e+001 2.507835e+001
      vertex   -7.550000e+001 9.915485e+001 2.507835e+001
    endloop
  endfacet
  facet normal 0.000000e+000 8.314698e-001 -5.555699e-001
    outer loop
      vertex   -7.450000e+001 9.698064e+001 2.528112e+001
      vertex   -7.550000e+001 9.684515e+001 2.507835e+001
      vertex   -7.550000e+001 9.711612e+001 2.548388e+001
    endloop
  endfacet
  facet normal 0.000000e+000 8.314698e-001 -5.555699e-001
    outer loop
      vertex   -7.450000e+001 9.698064e+001 2.528112e+001
      vertex   -7.350000e+001 9.711612e+001 2.548388e+001
      vertex   -7.350000e+001 9.684515e+001 2.507835e+001
    endloop
  endfacet
  facet normal -1.000000e+000 0.000000e+000 0.000000e+000
    outer loop
      vertex   -7.550000e+001 9.915485e+001 2.507835e+001
      vertex   -7.550000e+001 9.888388e+001 2.548388e+001
      vertex   -7.550000e+001 8.570000e+001 5.106015e+001
    endloop
  endfacet
  facet normal 1.000000e+000 0.000000e+000 0.000000e+000
    outer loop
      vertex   -7.350000e+001 9.915485e+001 2.507835e+001
      vertex   -7.350000e+001 8.540000e+001 4.953780e+001
      vertex   -7.350000e+001 9.888388e+001 2.548388e+001
    endloop
  endfacet
  facet normal 0.000000e+000 8.314698e-001 -5.555699e-001
    outer loop
      vertex   -7.450000e+001 9.698064e+001 2.528112e+001
      vertex   -7.350000e+001 9.684515e+001 2.507835e+001
      vertex   -7.550000e+001 9.684515e+001 2.507835e+001
    endloop
  endfacet
  facet normal 0.000000e+000 -8.314698e-001 -5.555699e-001
    outer loop
      vertex   -7.450000e+001 9.901936e+001 2.528112e+001
      vertex   -7.350000e+001 9.915485e+001 2.507835e+001
      vertex   -7.350000e+001 9.888388e+001 2.548388e+001
    endloop
  endfacet
  facet normal 0.000000e+000 -8.314698e-001 -5.555699e-001
    outer loop
      vertex   -7.450000e+001 9.901936e+001 2.528112e+001
      vertex   -7.550000e+001 9.915485e+001 2.507835e+001
      vertex   -7.350000e+001 9.915485e+001 2.507835e+001
    endloop
  endfacet
  facet normal 0.000000e+000 -8.314698e-001 -5.555699e-001
    outer loop
      vertex   -7.450000e+001 9.901936e+001 2.528112e+001
      vertex   -7.550000e+001 9.888388e+001 2.548388e+001
      vertex   -7.550000e+001 9.915485e+001 2.507835e+001
    endloop
  endfacet
  facet normal -0.000000e+000 -8.314698e-001 -5.555699e-001
    outer loop
      vertex   -7.450000e+001 9.901936e+001 2.528112e+001
      vertex   -7.350000e+001 9.888388e+001 2.548388e+001
      vertex   -7.550000e+001 9.888388e+001 2.548388e+001
    endloop
  endfacet
  facet normal 0.000000e+000 8.314698e-001 -5.555699e-001
    outer loop
      vertex   -7.450000e+001 9.698064e+001 2.528112e+001
      vertex   -7.550000e+001 9.711612e+001 2.548388e+001
      vertex   -7.350000e+001 9.711612e+001 2.548388e+001
    endloop
  endfacet
  facet normal -1.000000e+000 0.000000e+000 0.000000e+000
    outer loop
      vertex   -7.550000e+001 9.888388e+001 2.548388e+001
      vertex   -7.550000e+001 9.847836e+001 2.575485e+001
      vertex   -7.550000e+001 8.570000e+001 5.106015e+001
    endloop
  endfacet
  facet normal -1.000000e+000 -0.000000e+000 0.000000e+000
    outer loop
      vertex   -7.550000e+001 8.570000e+001 5.106015e+001
      vertex   -7.550000e+001 9.752164e+001 2.575485e+001
      vertex   -7.550000e+001 9.711612e+001 2.548388e+001
    endloop
  endfacet
  facet normal 0.000000e+000 -5.555861e-001 -8.314590e-001
    outer loop
      vertex   -7.450000e+001 9.868112e+001 2.561937e+001
      vertex   -7.550000e+001 9.888388e+001 2.548388e+001
      vertex   -7.350000e+001 9.888388e+001 2.548388e+001
    endloop
  endfacet
  facet normal -2.917762e-006 5.555762e-001 -8.314657e-001
    outer loop
      vertex   -7.450000e+001 9.731888e+001 2.561937e+001
      vertex   -7.350000e+001 9.752164e+001 2.575485e+001
      vertex   -7.350000e+001 9.711612e+001 2.548388e+001
    endloop
  endfacet
  facet normal -2.910124e-006 -5.555762e-001 -8.314657e-001
    outer loop
      vertex   -7.450000e+001 9.868112e+001 2.561937e+001
      vertex   -7.350000e+001 9.888388e+001 2.548388e+001
      vertex   -7.350000e+001 9.847836e+001 2.575485e+001
    endloop
  endfacet
  facet normal 2.910124e-006 5.555762e-001 -8.314657e-001
    outer loop
      vertex   -7.450000e+001 9.731888e+001 2.561937e+001
      vertex   -7.550000e+001 9.711612e+001 2.548388e+001
      vertex   -7.550000e+001 9.752164e+001 2.575485e+001
    endloop
  endfacet
  facet normal 2.917762e-006 -5.555762e-001 -8.314657e-001
    outer loop
      vertex   -7.450000e+001 9.868112e+001 2.561937e+001
      vertex   -7.550000e+001 9.847836e+001 2.575485e+001
      vertex   -7.550000e+001 9.888388e+001 2.548388e+001
    endloop
  endfacet
  facet normal 1.000000e+000 0.000000e+000 0.000000e+000
    outer loop
      vertex   -7.350000e+001 9.752164e+001 2.575485e+001
      vertex   -7.350000e+001 8.540000e+001 4.953780e+001
      vertex   -7.350000e+001 9.711612e+001 2.548388e+001
    endloop
  endfacet
  facet normal 1.000000e+000 0.000000e+000 0.000000e+000
    outer loop
      vertex   -7.350000e+001 9.888388e+001 2.548388e+001
      vertex   -7.350000e+001 8.540000e+001 4.953780e+001
      vertex   -7.350000e+001 9.847836e+001 2.575485e+001
    endloop
  endfacet
  facet normal 0.000000e+000 5.555861e-001 -8.314590e-001
    outer loop
      vertex   -7.450000e+001 9.731888e+001 2.561937e+001
      vertex   -7.350000e+001 9.711612e+001 2.548388e+001
      vertex   -7.550000e+001 9.711612e+001 2.548388e+001
    endloop
  endfacet
  facet normal -0.000000e+000 -5.555663e-001 -8.314722e-001
    outer loop
      vertex   -7.450000e+001 9.868112e+001 2.561937e+001
      vertex   -7.350000e+001 9.847836e+001 2.575485e+001
      vertex   -7.550000e+001 9.847836e+001 2.575485e+001
    endloop
  endfacet
  facet normal 0.000000e+000 5.555663e-001 -8.314722e-001
    outer loop
      vertex   -7.450000e+001 9.731888e+001 2.561937e+001
      vertex   -7.550000e+001 9.752164e+001 2.575485e+001
      vertex   -7.350000e+001 9.752164e+001 2.575485e+001
    endloop
  endfacet
  facet normal 0.000000e+000 1.950917e-001 -9.807850e-001
    outer loop
      vertex   -7.450000e+001 9.776082e+001 2.580243e+001
      vertex   -7.350000e+001 9.752164e+001 2.575485e+001
      vertex   -7.550000e+001 9.752164e+001 2.575485e+001
    endloop
  endfacet
  facet normal -7.447116e-007 1.950887e-001 -9.807855e-001
    outer loop
      vertex   -7.450000e+001 9.776082e+001 2.580243e+001
      vertex   -7.350000e+001 9.800000e+001 2.585000e+001
      vertex   -7.350000e+001 9.752164e+001 2.575485e+001
    endloop
  endfacet
  facet normal -1.000000e+000 -0.000000e+000 0.000000e+000
    outer loop
      vertex   -7.550000e+001 8.570000e+001 5.106015e+001
      vertex   -7.550000e+001 9.800000e+001 2.585000e+001
      vertex   -7.550000e+001 9.752164e+001 2.575485e+001
    endloop
  endfacet
  facet normal 7.447116e-007 -1.950887e-001 -9.807855e-001
    outer loop
      vertex   -7.450000e+001 9.823918e+001 2.580243e+001
      vertex   -7.550000e+001 9.800000e+001 2.585000e+001
      vertex   -7.550000e+001 9.847836e+001 2.575485e+001
    endloop
  endfacet
  facet normal 7.447116e-007 1.950887e-001 -9.807855e-001
    outer loop
      vertex   -7.450000e+001 9.776082e+001 2.580243e+001
      vertex   -7.550000e+001 9.752164e+001 2.575485e+001
      vertex   -7.550000e+001 9.800000e+001 2.585000e+001
    endloop
  endfacet
  facet normal 1.000000e+000 0.000000e+000 0.000000e+000
    outer loop
      vertex   -7.350000e+001 9.847836e+001 2.575485e+001
      vertex   -7.350000e+001 8.540000e+001 4.953780e+001
      vertex   -7.350000e+001 9.800000e+001 2.585000e+001
    endloop
  endfacet
  facet normal -7.447116e-007 -1.950887e-001 -9.807855e-001
    outer loop
      vertex   -7.450000e+001 9.823918e+001 2.580243e+001
      vertex   -7.350000e+001 9.847836e+001 2.575485e+001
      vertex   -7.350000e+001 9.800000e+001 2.585000e+001
    endloop
  endfacet
  facet normal -1.000000e+000 0.000000e+000 0.000000e+000
    outer loop
      vertex   -7.550000e+001 9.847836e+001 2.575485e+001
      vertex   -7.550000e+001 9.800000e+001 2.585000e+001
      vertex   -7.550000e+001 8.570000e+001 5.106015e+001
    endloop
  endfacet
  facet normal 1.000000e+000 0.000000e+000 0.000000e+000
    outer loop
      vertex   -7.350000e+001 9.800000e+001 2.585000e+001
      vertex   -7.350000e+001 8.540000e+001 4.953780e+001
      vertex   -7.350000e+001 9.752164e+001 2.575485e+001
    endloop
  endfacet
  facet normal 0.000000e+000 -1.950917e-001 -9.807850e-001
    outer loop
      vertex   -7.450000e+001 9.823918e+001 2.580243e+001
      vertex   -7.550000e+001 9.847836e+001 2.575485e+001
      vertex   -7.350000e+001 9.847836e+001 2.575485e+001
    endloop
  endfacet
  facet normal 0.000000e+000 1.950857e-001 -9.807861e-001
    outer loop
      vertex   -7.450000e+001 9.776082e+001 2.580243e+001
      vertex   -7.550000e+001 9.800000e+001 2.585000e+001
      vertex   -7.350000e+001 9.800000e+001 2.585000e+001
    endloop
  endfacet
  facet normal -0.000000e+000 -1.950857e-001 -9.807861e-001
    outer loop
      vertex   -7.450000e+001 9.823918e+001 2.580243e+001
      vertex   -7.350000e+001 9.800000e+001 2.585000e+001
      vertex   -7.550000e+001 9.800000e+001 2.585000e+001
    endloop
  endfacet
  facet normal 0.000000e+000 0.000000e+000 -1.000000e+000
    outer loop
      vertex   -8.150000e+001 1.120000e+002 2.882132e+001
      vertex   -8.750000e+001 1.120000e+002 2.882132e+001
      vertex   -9.050000e+001 1.136000e+002 2.882132e+001
    endloop
  endfacet
  facet normal 0.000000e+000 0.000000e+000 -1.000000e+000
    outer loop
      vertex   -8.150000e+001 8.400000e+001 2.882132e+001
      vertex   -8.150000e+001 8.240000e+001 2.882132e+001
      vertex   -8.750000e+001 8.400000e+001 2.882132e+001
    endloop
  endfacet
  facet normal 0.000000e+000 0.000000e+000 -1.000000e+000
    outer loop
      vertex   -9.050000e+001 1.136000e+002 2.882132e+001
      vertex   -8.750000e+001 1.070000e+002 2.882132e+001
      vertex   -9.050000e+001 1.070000e+002 2.882132e+001
    endloop
  endfacet
  facet normal 0.000000e+000 0.000000e+000 -1.000000e+000
    outer loop
      vertex   -8.750000e+001 1.120000e+002 2.882132e+001
      vertex   -8.750000e+001 1.070000e+002 2.882132e+001
      vertex   -9.050000e+001 1.136000e+002 2.882132e+001
    endloop
  endfacet
  facet normal 0.000000e+000 -1.000000e+000 0.000000e+000
    outer loop
      vertex   -9.050000e+001 8.240000e+001 5.182132e+001
      vertex   -9.050000e+001 8.240000e+001 2.882132e+001
      vertex   -8.150000e+001 8.240000e+001 2.882132e+001
    endloop
  endfacet
  facet normal 0.000000e+000 -1.000000e+000 0.000000e+000
    outer loop
      vertex   -7.650000e+001 8.240000e+001 5.182132e+001
      vertex   -9.050000e+001 8.240000e+001 5.182132e+001
      vertex   -8.150000e+001 8.240000e+001 2.882132e+001
    endloop
  endfacet
  facet normal -0.000000e+000 0.000000e+000 -1.000000e+000
    outer loop
      vertex   -9.050000e+001 8.900000e+001 2.882132e+001
      vertex   -8.750000e+001 8.400000e+001 2.882132e+001
      vertex   -9.050000e+001 8.240000e+001 2.882132e+001
    endloop
  endfacet
  facet normal 0.000000e+000 0.000000e+000 -1.000000e+000
    outer loop
      vertex   -8.150000e+001 8.240000e+001 2.882132e+001
      vertex   -9.050000e+001 8.240000e+001 2.882132e+001
      vertex   -8.750000e+001 8.400000e+001 2.882132e+001
    endloop
  endfacet
  facet normal -1.000000e+000 0.000000e+000 0.000000e+000
    outer loop
      vertex   -8.150000e+001 1.120000e+002 5.182132e+001
      vertex   -8.150000e+001 1.120000e+002 2.882132e+001
      vertex   -8.150000e+001 1.103000e+002 5.182132e+001
    endloop
  endfacet
  facet normal -1.000000e+000 0.000000e+000 -0.000000e+000
    outer loop
      vertex   -9.050000e+001 1.103000e+002 4.032132e+001
      vertex   -9.050000e+001 1.136000e+002 5.182132e+001
      vertex   -9.050000e+001 1.136000e+002 2.882132e+001
    endloop
  endfacet
  facet normal 0.000000e+000 1.000000e+000 0.000000e+000
    outer loop
      vertex   -9.050000e+001 1.136000e+002 5.182132e+001
      vertex   -8.150000e+001 1.136000e+002 2.882132e+001
      vertex   -9.050000e+001 1.136000e+002 2.882132e+001
    endloop
  endfacet
  facet normal 0.000000e+000 1.000000e+000 -0.000000e+000
    outer loop
      vertex   -7.650000e+001 1.136000e+002 5.182132e+001
      vertex   -8.150000e+001 1.136000e+002 2.882132e+001
      vertex   -9.050000e+001 1.136000e+002 5.182132e+001
    endloop
  endfacet
  facet normal 0.000000e+000 0.000000e+000 -1.000000e+000
    outer loop
      vertex   -8.750000e+001 8.900000e+001 2.882132e+001
      vertex   -8.750000e+001 8.400000e+001 2.882132e+001
      vertex   -9.050000e+001 8.900000e+001 2.882132e+001
    endloop
  endfacet
  facet normal 0.000000e+000 0.000000e+000 -1.000000e+000
    outer loop
      vertex   -8.150000e+001 1.136000e+002 2.882132e+001
      vertex   -8.150000e+001 1.120000e+002 2.882132e+001
      vertex   -9.050000e+001 1.136000e+002 2.882132e+001
    endloop
  endfacet
  facet normal -1.000000e+000 0.000000e+000 0.000000e+000
    outer loop
      vertex   -9.050000e+001 8.570000e+001 4.032132e+001
      vertex   -9.050000e+001 8.900000e+001 2.882132e+001
      vertex   -9.050000e+001 8.240000e+001 2.882132e+001
    endloop
  endfacet
  facet normal -1.000000e+000 0.000000e+000 0.000000e+000
    outer loop
      vertex   -9.050000e+001 8.570000e+001 4.032132e+001
      vertex   -9.050000e+001 8.240000e+001 2.882132e+001
      vertex   -9.050000e+001 8.240000e+001 5.182132e+001
    endloop
  endfacet
  facet normal -1.000000e+000 0.000000e+000 0.000000e+000
    outer loop
      vertex   -9.050000e+001 1.103000e+002 4.032132e+001
      vertex   -9.050000e+001 1.136000e+002 2.882132e+001
      vertex   -9.050000e+001 1.070000e+002 2.882132e+001
    endloop
  endfacet
  facet normal -1.000000e+000 0.000000e+000 0.000000e+000
    outer loop
      vertex   -9.050000e+001 1.103000e+002 4.032132e+001
      vertex   -9.050000e+001 1.070000e+002 2.882132e+001
      vertex   -9.050000e+001 1.070000e+002 5.182132e+001
    endloop
  endfacet
  facet normal 0.000000e+000 1.000000e+000 0.000000e+000
    outer loop
      vertex   -8.450000e+001 8.400000e+001 4.032132e+001
      vertex   -8.150000e+001 8.400000e+001 5.182132e+001
      vertex   -8.150000e+001 8.400000e+001 2.882132e+001
    endloop
  endfacet
  facet normal 0.000000e+000 1.000000e+000 0.000000e+000
    outer loop
      vertex   -8.450000e+001 8.400000e+001 4.032132e+001
      vertex   -8.150000e+001 8.400000e+001 2.882132e+001
      vertex   -8.750000e+001 8.400000e+001 2.882132e+001
    endloop
  endfacet
  facet normal 0.000000e+000 1.000000e+000 0.000000e+000
    outer loop
      vertex   -8.450000e+001 8.400000e+001 4.032132e+001
      vertex   -8.750000e+001 8.400000e+001 2.882132e+001
      vertex   -8.750000e+001 8.400000e+001 5.182132e+001
    endloop
  endfacet
  facet normal 0.000000e+000 1.000000e+000 0.000000e+000
    outer loop
      vertex   -8.900000e+001 8.900000e+001 4.032132e+001
      vertex   -9.050000e+001 8.900000e+001 2.882132e+001
      vertex   -9.050000e+001 8.900000e+001 5.182132e+001
    endloop
  endfacet
  facet normal 0.000000e+000 -1.000000e+000 0.000000e+000
    outer loop
      vertex   -8.450000e+001 1.120000e+002 4.032132e+001
      vertex   -8.150000e+001 1.120000e+002 2.882132e+001
      vertex   -8.150000e+001 1.120000e+002 5.182132e+001
    endloop
  endfacet
  facet normal 0.000000e+000 -1.000000e+000 0.000000e+000
    outer loop
      vertex   -8.450000e+001 1.120000e+002 4.032132e+001
      vertex   -8.750000e+001 1.120000e+002 5.182132e+001
      vertex   -8.750000e+001 1.120000e+002 2.882132e+001
    endloop
  endfacet
  facet normal 0.000000e+000 -1.000000e+000 0.000000e+000
    outer loop
      vertex   -8.450000e+001 1.120000e+002 4.032132e+001
      vertex   -8.750000e+001 1.120000e+002 2.882132e+001
      vertex   -8.150000e+001 1.120000e+002 2.882132e+001
    endloop
  endfacet
  facet normal 1.000000e+000 0.000000e+000 -0.000000e+000
    outer loop
      vertex   -8.750000e+001 1.095000e+002 4.032132e+001
      vertex   -8.750000e+001 1.120000e+002 2.882132e+001
      vertex   -8.750000e+001 1.120000e+002 5.182132e+001
    endloop
  endfacet
  facet normal 1.000000e+000 0.000000e+000 0.000000e+000
    outer loop
      vertex   -8.750000e+001 1.095000e+002 4.032132e+001
      vertex   -8.750000e+001 1.070000e+002 5.182132e+001
      vertex   -8.750000e+001 1.070000e+002 2.882132e+001
    endloop
  endfacet
  facet normal 0.000000e+000 -1.000000e+000 0.000000e+000
    outer loop
      vertex   -8.900000e+001 1.070000e+002 4.032132e+001
      vertex   -9.050000e+001 1.070000e+002 5.182132e+001
      vertex   -9.050000e+001 1.070000e+002 2.882132e+001
    endloop
  endfacet
  facet normal -1.000000e+000 0.000000e+000 -0.000000e+000
    outer loop
      vertex   -9.050000e+001 8.570000e+001 4.032132e+001
      vertex   -9.050000e+001 8.900000e+001 5.182132e+001
      vertex   -9.050000e+001 8.900000e+001 2.882132e+001
    endloop
  endfacet
  facet normal 0.000000e+000 -1.000000e+000 0.000000e+000
    outer loop
      vertex   -8.900000e+001 1.070000e+002 4.032132e+001
      vertex   -8.750000e+001 1.070000e+002 2.882132e+001
      vertex   -8.750000e+001 1.070000e+002 5.182132e+001
    endloop
  endfacet
  facet normal 0.000000e+000 -1.000000e+000 0.000000e+000
    outer loop
      vertex   -8.900000e+001 1.070000e+002 4.032132e+001
      vertex   -9.050000e+001 1.070000e+002 2.882132e+001
      vertex   -8.750000e+001 1.070000e+002 2.882132e+001
    endloop
  endfacet
  facet normal 1.000000e+000 0.000000e+000 -0.000000e+000
    outer loop
      vertex   -8.750000e+001 8.650000e+001 4.032132e+001
      vertex   -8.750000e+001 8.900000e+001 2.882132e+001
      vertex   -8.750000e+001 8.900000e+001 5.182132e+001
    endloop
  endfacet
  facet normal 0.000000e+000 1.000000e+000 0.000000e+000
    outer loop
      vertex   -8.900000e+001 8.900000e+001 4.032132e+001
      vertex   -8.750000e+001 8.900000e+001 2.882132e+001
      vertex   -9.050000e+001 8.900000e+001 2.882132e+001
    endloop
  endfacet
  facet normal 0.000000e+000 1.000000e+000 0.000000e+000
    outer loop
      vertex   -8.900000e+001 8.900000e+001 4.032132e+001
      vertex   -8.750000e+001 8.900000e+001 5.182132e+001
      vertex   -8.750000e+001 8.900000e+001 2.882132e+001
    endloop
  endfacet
  facet normal 1.000000e+000 0.000000e+000 0.000000e+000
    outer loop
      vertex   -8.750000e+001 8.650000e+001 4.032132e+001
      vertex   -8.750000e+001 8.400000e+001 5.182132e+001
      vertex   -8.750000e+001 8.400000e+001 2.882132e+001
    endloop
  endfacet
  facet normal 1.000000e+000 0.000000e+000 0.000000e+000
    outer loop
      vertex   -8.750000e+001 1.095000e+002 4.032132e+001
      vertex   -8.750000e+001 1.070000e+002 2.882132e+001
      vertex   -8.750000e+001 1.120000e+002 2.882132e+001
    endloop
  endfacet
  facet normal 1.000000e+000 0.000000e+000 0.000000e+000
    outer loop
      vertex   -8.750000e+001 8.650000e+001 4.032132e+001
      vertex   -8.750000e+001 8.400000e+001 2.882132e+001
      vertex   -8.750000e+001 8.900000e+001 2.882132e+001
    endloop
  endfacet
  facet normal -0.000000e+000 1.000000e+000 0.000000e+000
    outer loop
      vertex   -8.450000e+001 8.400000e+001 4.032132e+001
      vertex   -8.750000e+001 8.400000e+001 5.182132e+001
      vertex   -8.150000e+001 8.400000e+001 5.182132e+001
    endloop
  endfacet
  facet normal 1.000000e+000 0.000000e+000 0.000000e+000
    outer loop
      vertex   -8.750000e+001 8.650000e+001 4.032132e+001
      vertex   -8.750000e+001 8.900000e+001 5.182132e+001
      vertex   -8.750000e+001 8.400000e+001 5.182132e+001
    endloop
  endfacet
  facet normal -1.000000e+000 0.000000e+000 0.000000e+000
    outer loop
      vertex   -9.050000e+001 8.570000e+001 4.032132e+001
      vertex   -9.050000e+001 8.240000e+001 5.182132e+001
      vertex   -9.050000e+001 8.900000e+001 5.182132e+001
    endloop
  endfacet
  facet normal -0.000000e+000 -1.000000e+000 0.000000e+000
    outer loop
      vertex   -8.900000e+001 1.070000e+002 4.032132e+001
      vertex   -8.750000e+001 1.070000e+002 5.182132e+001
      vertex   -9.050000e+001 1.070000e+002 5.182132e+001
    endloop
  endfacet
  facet normal -0.000000e+000 1.000000e+000 0.000000e+000
    outer loop
      vertex   -8.900000e+001 8.900000e+001 4.032132e+001
      vertex   -9.050000e+001 8.900000e+001 5.182132e+001
      vertex   -8.750000e+001 8.900000e+001 5.182132e+001
    endloop
  endfacet
  facet normal -1.000000e+000 0.000000e+000 0.000000e+000
    outer loop
      vertex   -9.050000e+001 1.103000e+002 4.032132e+001
      vertex   -9.050000e+001 1.070000e+002 5.182132e+001
      vertex   -9.050000e+001 1.136000e+002 5.182132e+001
    endloop
  endfacet
  facet normal -0.000000e+000 -1.000000e+000 0.000000e+000
    outer loop
      vertex   -8.450000e+001 1.120000e+002 4.032132e+001
      vertex   -8.150000e+001 1.120000e+002 5.182132e+001
      vertex   -8.750000e+001 1.120000e+002 5.182132e+001
    endloop
  endfacet
  facet normal 1.000000e+000 0.000000e+000 0.000000e+000
    outer loop
      vertex   -8.750000e+001 1.095000e+002 4.032132e+001
      vertex   -8.750000e+001 1.120000e+002 5.182132e+001
      vertex   -8.750000e+001 1.070000e+002 5.182132e+001
    endloop
  endfacet
  facet normal 6.056749e-001 -1.011816e-005 7.957122e-001
    outer loop
      vertex   -7.350000e+001 1.106000e+002 4.953780e+001
      vertex   -7.650000e+001 1.103000e+002 5.182132e+001
      vertex   -7.550000e+001 1.103000e+002 5.106015e+001
    endloop
  endfacet
  facet normal 6.056739e-001 0.000000e+000 7.957130e-001
    outer loop
      vertex   -7.350000e+001 1.106000e+002 4.953780e+001
      vertex   -7.550000e+001 1.103000e+002 5.106015e+001
      vertex   -7.350000e+001 8.540000e+001 4.953780e+001
    endloop
  endfacet
  facet normal 6.056740e-001 4.399145e-007 7.957129e-001
    outer loop
      vertex   -7.350000e+001 8.540000e+001 4.953780e+001
      vertex   -7.550000e+001 8.570000e+001 5.106015e+001
      vertex   -7.650000e+001 8.240000e+001 5.182132e+001
    endloop
  endfacet
  facet normal 6.056742e-001 -0.000000e+000 7.957127e-001
    outer loop
      vertex   -7.650000e+001 1.136000e+002 5.182132e+001
      vertex   -7.650000e+001 1.103000e+002 5.182132e+001
      vertex   -7.350000e+001 1.106000e+002 4.953780e+001
    endloop
  endfacet
  facet normal 6.056739e-001 -0.000000e+000 7.957129e-001
    outer loop
      vertex   -7.550000e+001 1.103000e+002 5.106015e+001
      vertex   -7.550000e+001 8.570000e+001 5.106015e+001
      vertex   -7.350000e+001 8.540000e+001 4.953780e+001
    endloop
  endfacet
  facet normal 6.056749e-001 0.000000e+000 7.957122e-001
    outer loop
      vertex   -7.550000e+001 8.570000e+001 5.106015e+001
      vertex   -7.650000e+001 8.570000e+001 5.182132e+001
      vertex   -7.650000e+001 8.240000e+001 5.182132e+001
    endloop
  endfacet
  facet normal -0.000000e+000 0.000000e+000 1.000000e+000
    outer loop
      vertex   -8.750000e+001 8.900000e+001 5.182132e+001
      vertex   -9.050000e+001 8.900000e+001 5.182132e+001
      vertex   -8.750000e+001 8.400000e+001 5.182132e+001
    endloop
  endfacet
  facet normal 0.000000e+000 0.000000e+000 1.000000e+000
    outer loop
      vertex   -7.650000e+001 8.240000e+001 5.182132e+001
      vertex   -8.150000e+001 8.570000e+001 5.182132e+001
      vertex   -8.150000e+001 8.400000e+001 5.182132e+001
    endloop
  endfacet
  facet normal 0.000000e+000 0.000000e+000 1.000000e+000
    outer loop
      vertex   -9.050000e+001 8.900000e+001 5.182132e+001
      vertex   -9.050000e+001 8.240000e+001 5.182132e+001
      vertex   -8.750000e+001 8.400000e+001 5.182132e+001
    endloop
  endfacet
  facet normal 0.000000e+000 0.000000e+000 1.000000e+000
    outer loop
      vertex   -7.650000e+001 8.240000e+001 5.182132e+001
      vertex   -8.150000e+001 8.400000e+001 5.182132e+001
      vertex   -9.050000e+001 8.240000e+001 5.182132e+001
    endloop
  endfacet
  facet normal -0.000000e+000 0.000000e+000 1.000000e+000
    outer loop
      vertex   -7.650000e+001 8.570000e+001 5.182132e+001
      vertex   -8.150000e+001 8.570000e+001 5.182132e+001
      vertex   -7.650000e+001 8.240000e+001 5.182132e+001
    endloop
  endfacet
  facet normal 0.000000e+000 0.000000e+000 1.000000e+000
    outer loop
      vertex   -9.050000e+001 1.136000e+002 5.182132e+001
      vertex   -9.050000e+001 1.070000e+002 5.182132e+001
      vertex   -8.750000e+001 1.070000e+002 5.182132e+001
    endloop
  endfacet
  facet normal 0.000000e+000 0.000000e+000 1.000000e+000
    outer loop
      vertex   -8.750000e+001 1.120000e+002 5.182132e+001
      vertex   -9.050000e+001 1.136000e+002 5.182132e+001
      vertex   -8.750000e+001 1.070000e+002 5.182132e+001
    endloop
  endfacet
  facet normal 0.000000e+000 0.000000e+000 1.000000e+000
    outer loop
      vertex   -8.150000e+001 1.120000e+002 5.182132e+001
      vertex   -9.050000e+001 1.136000e+002 5.182132e+001
      vertex   -8.750000e+001 1.120000e+002 5.182132e+001
    endloop
  endfacet
  facet normal 0.000000e+000 0.000000e+000 1.000000e+000
    outer loop
      vertex   -7.650000e+001 1.103000e+002 5.182132e+001
      vertex   -8.150000e+001 1.120000e+002 5.182132e+001
      vertex   -8.150000e+001 1.103000e+002 5.182132e+001
    endloop
  endfacet
  facet normal -0.000000e+000 0.000000e+000 1.000000e+000
    outer loop
      vertex   -7.650000e+001 1.136000e+002 5.182132e+001
      vertex   -8.150000e+001 1.120000e+002 5.182132e+001
      vertex   -7.650000e+001 1.103000e+002 5.182132e+001
    endloop
  endfacet
  facet normal -0.000000e+000 0.000000e+000 1.000000e+000
    outer loop
      vertex   -7.650000e+001 1.136000e+002 5.182132e+001
      vertex   -9.050000e+001 1.136000e+002 5.182132e+001
      vertex   -8.150000e+001 1.120000e+002 5.182132e+001
    endloop
  endfacet
  facet normal -0.000000e+000 0.000000e+000 1.000000e+000
    outer loop
      vertex   -8.150000e+001 8.400000e+001 5.182132e+001
      vertex   -8.750000e+001 8.400000e+001 5.182132e+001
      vertex   -9.050000e+001 8.240000e+001 5.182132e+001
    endloop
  endfacet
endsolid
